<?xml version="1.0" standalone="no"?>
<!DOCTYPE svg PUBLIC "-//W3C//DTD SVG 20010904//EN"
 "http://www.w3.org/TR/2001/REC-SVG-20010904/DTD/svg10.dtd">
<svg version="1.0" xmlns="http://www.w3.org/2000/svg"
 width="70.000000pt" height="70.000000pt" viewBox="0 0 70.000000 70.000000"
 preserveAspectRatio="xMidYMid meet">
<metadata>
Created by potrace 1.14, written by Peter Selinger 2001-2017
</metadata>
<g transform="translate(0.000000,70.000000) scale(0.100000,-0.100000)"
fill="#000000" stroke="none">
<path d="M90 678 c-30 -15 -52 -37 -67 -62 -20 -37 -22 -53 -23 -258 -1 -247
7 -283 71 -329 33 -23 39 -24 264 -27 223 -3 231 -2 275 20 33 17 51 35 68 68
21 42 22 56 22 260 0 204 -1 218 -22 260 -17 33 -35 51 -68 68 -42 21 -56 22
-260 22 -204 0 -218 -1 -260 -22z m453 -98 c57 -39 66 -73 63 -240 -2 -167
-12 -197 -81 -230 -35 -17 -59 -19 -187 -17 -160 3 -175 7 -222 71 -19 25 -21
41 -21 185 0 152 1 159 25 194 23 34 46 49 95 61 11 3 81 4 156 3 127 -2 139
-4 172 -27z"/>
<path d="M205 550 c-11 -4 -29 -18 -40 -30 -17 -19 -20 -38 -21 -156 -4 -213
0 -218 191 -220 217 -2 220 1 220 206 0 152 -9 182 -56 199 -33 11 -264 12
-294 1z m299 -36 c22 -8 20 -41 -3 -54 -28 -14 -55 13 -41 41 11 20 19 23 44
13z m-77 -54 c26 -17 50 -58 53 -90 5 -53 -1 -71 -33 -106 -112 -123 -297 25
-204 163 40 59 119 73 184 33z"/>
<path d="M290 405 c-31 -33 -29 -80 4 -113 33 -34 83 -33 114 3 33 39 33 77
-1 113 -29 31 -86 30 -117 -3z"/>
</g>
</svg>
